<svg width="326" height="326" viewBox="0 0 326 326" fill="none" xmlns="http://www.w3.org/2000/svg">
<path d="M256.589 95.2463C267.564 88.509 274.832 79.3131 278.39 67.6178C267.714 73.2821 257.078 77.1669 246.456 79.3131C236.907 69.0441 224.818 63.8281 210.324 63.8281C196.157 63.8281 184.19 68.7996 174.424 78.4709C164.712 88.2101 159.808 100.041 159.808 113.855C159.808 118.053 160.338 121.802 161.397 124.98C119.615 123.554 85.0317 106.222 57.7835 72.861C53.1652 81.0246 50.856 89.3376 50.856 97.9358C50.856 115.608 58.3133 129.612 73.2006 139.895C64.711 139.175 57.2266 137.029 50.856 133.511C50.856 146.129 54.5643 156.67 61.9944 165.948C69.4516 175.13 79.0279 180.984 90.7231 183.484C86.4851 184.57 82.0162 185.086 77.425 185.086C73.187 185.086 70.1851 184.733 68.4057 183.959C71.5299 194.242 77.425 202.582 85.9418 208.966C94.4314 215.377 104.198 218.76 115.173 219.058C97.0801 233.253 76.3927 240.276 52.9886 240.276C47.2564 240.276 43.195 240.194 40.7365 239.759C63.7874 254.728 89.4463 262.158 117.835 262.158C146.89 262.158 172.563 254.796 194.907 240.072C217.252 225.429 233.742 207.363 244.337 186.092C254.986 164.847 260.257 142.734 260.257 119.642V113.285C270.553 105.542 278.879 96.822 285.25 87.1914C276.013 91.1713 266.464 93.8744 256.589 95.2463Z" fill="#1CA3F3"/>
</svg>
